<?xml version="1.0" standalone="no"?><!DOCTYPE svg PUBLIC "-//W3C//DTD SVG 1.1//EN" "http://www.w3.org/Graphics/SVG/1.1/DTD/svg11.dtd"><svg t="1553687153602" class="icon" style="" viewBox="0 0 1024 1024" version="1.1" xmlns="http://www.w3.org/2000/svg" p-id="3441" xmlns:xlink="http://www.w3.org/1999/xlink" width="200" height="200"><defs><style type="text/css"></style></defs><path d="M512 2C230.3 2 2 230.3 2 512s228.3 510 510 510 510-228.3 510-510S793.7 2 512 2z m247.7 556.4H376.2l184.9 184.9c18 18 18 47.6 0 65.6-18 18-47.6 18-65.6 0L231.4 544.8c-18.1-18-18-47.6 0-65.6l264.1-264.1c18-18 47.6-18 65.6 0 18 18 18 47.6 0 65.6L376.2 465.6h383.5c25.5 0 46.4 20.9 46.4 46.4s-20.9 46.4-46.4 46.4z" fill="#3B74B9" p-id="3442"></path></svg>