<?xml version="1.0" standalone="no"?><!DOCTYPE svg PUBLIC "-//W3C//DTD SVG 1.1//EN" "http://www.w3.org/Graphics/SVG/1.1/DTD/svg11.dtd"><svg t="1553658192861" class="icon" style="" viewBox="0 0 1340 1024" version="1.1" xmlns="http://www.w3.org/2000/svg" p-id="2188" xmlns:xlink="http://www.w3.org/1999/xlink" width="261.71875" height="200"><defs><style type="text/css"></style></defs><path d="M1338.521494 852.052454c0 93.912412-76.177155 170.026227-169.561732 170.026226H620.929742c-93.384577 0-169.561732-76.388289-169.561732-170.026226V741.988289a33.612536 33.612536 0 0 1 33.580866-33.675877 33.612536 33.612536 0 0 1 33.591423 33.675877v110.064165c0 56.678928 46.14334 102.948948 102.663917 102.948948h547.755546c56.520577 0 102.663918-46.270021 102.663918-102.948948V172.496495c0-56.689485-46.14334-102.948948-102.663918-102.948949H621.47869c-56.531134 0-102.674474 46.270021-102.674474 102.948949v110.064165a33.612536 33.612536 0 0 1-33.591423 33.675876 33.612536 33.612536 0 0 1-33.580866-33.675876V172.496495c0-93.637938 76.177155-170.036784 169.561732-170.036784h547.755547c93.384577 0 169.561732 76.398845 169.561732 170.036784v679.555959zM9.833989 536.090392a33.781443 33.781443 0 0 1 0-47.631835l229.090969-229.713815a33.232495 33.232495 0 0 1 47.241237 0 33.443629 33.443629 0 0 1 0 47.357361l-172.021443 172.496495h627.754227a33.612536 33.612536 0 0 1 33.580866 33.675876 33.612536 33.612536 0 0 1-33.580866 33.675877h-627.490309l172.032 172.496494a33.443629 33.443629 0 0 1 0 47.367918 33.211381 33.211381 0 0 1-23.752578 9.849402c-8.740948 0-17.207423-3.283134-23.752577-9.849402L9.823433 536.100948z" fill="#20A0FF" p-id="2189"></path></svg>