<?xml version="1.0" standalone="no"?><!DOCTYPE svg PUBLIC "-//W3C//DTD SVG 1.1//EN" "http://www.w3.org/Graphics/SVG/1.1/DTD/svg11.dtd"><svg t="1553683464726" class="icon" style="" viewBox="0 0 1024 1024" version="1.1" xmlns="http://www.w3.org/2000/svg" p-id="1967" xmlns:xlink="http://www.w3.org/1999/xlink" width="200" height="200"><defs><style type="text/css"></style></defs><path d="M883.9 759.5H140.1c-24.4 0-44.2-19.8-44.2-44.2V200.9h832.2v514.4c0 24.4-19.8 44.2-44.2 44.2z" fill="#F44336" p-id="1968"></path><path d="M976.4 200.9H47.6c-24.4 0-44.2-19.8-44.2-44.2v-0.1c0-24.4 19.8-44.2 44.2-44.2h928.8c24.4 0 44.2 19.8 44.2 44.2v0.1c0.1 24.4-19.8 44.2-44.2 44.2z" fill="#FFC107" p-id="1969"></path><path d="M524.3 935.5h-24.6c-2.9 0-5.3-2.4-5.3-5.3V759.5h35.2v170.7c0 2.9-2.4 5.3-5.3 5.3z" fill="#B0BEC5" p-id="1970"></path><path d="M512 949m-40.2 0a40.2 40.2 0 1 0 80.4 0 40.2 40.2 0 1 0-80.4 0Z" fill="#455A64" p-id="1971"></path><path d="M881.2 759.5H527.6l-139-186.3 244.8-182.7 270.9 363s-9.9 6.4-23.1 6z" fill="#E53935" p-id="1972"></path><path d="M512 480.2m-153.3 0a153.3 153.3 0 1 0 306.6 0 153.3 153.3 0 1 0-306.6 0Z" fill="#FFEBEE" p-id="1973"></path><path d="M569.9 467.5l-73.4-42.4c-10-5.8-22.5 1.4-22.5 13v84.8c0 11.6 12.5 18.8 22.5 13l73.4-42.4c10-5.8 10-20.2 0-26z" fill="#F44336" p-id="1974"></path></svg>