<?xml version="1.0" standalone="no"?><!DOCTYPE svg PUBLIC "-//W3C//DTD SVG 1.1//EN" "http://www.w3.org/Graphics/SVG/1.1/DTD/svg11.dtd"><svg t="1553660012307" class="icon" style="" viewBox="0 0 1024 1024" version="1.1" xmlns="http://www.w3.org/2000/svg" p-id="2965" xmlns:xlink="http://www.w3.org/1999/xlink" width="200" height="200"><defs><style type="text/css"></style></defs><path d="M607.512331 547.909861c-21.350261 0-37.521568 19.218714-56.891731 19.218714-19.213597 0-103.557564-83.125209-103.557564-103.562681 0-20.434401 19.218714-30.502711 19.218714-51.701522 0-15.253402-56.891731-108.593254-80.227206-108.593254-23.336498 0-80.227206 41.638329-80.227206 80.223113 0 111.646799 205.90251 325.632405 334.782809 325.632405 35.535331 0 80.227206-37.521568 80.227206-80.228229C721.139228 612.884688 628.711142 547.909861 607.512331 547.909861" p-id="2966"></path><path d="M513.332345 954.937065c-60.181661 0-118.570489-11.873422-173.546591-35.288714-53.082986-22.60995-100.750635-54.972009-141.677766-96.187713-40.919968-41.207517-73.046666-89.193415-95.489818-142.628418-23.236214-55.32198-35.017538-114.077152-35.017538-174.633343 0-60.556191 11.782348-119.311363 35.017538-174.633343 22.443152-53.43398 54.570873-101.420901 95.489818-142.627395 40.928155-41.215704 88.595804-73.577762 141.677766-96.187713 54.976102-23.416316 113.364931-35.288714 173.546591-35.288714s118.570489 11.873422 173.546591 35.288714c53.082986 22.60995 100.750635 54.972009 141.677766 96.187713 40.919968 41.206494 73.04769 89.193415 95.489818 142.627395 23.236214 55.32198 35.018561 114.077152 35.018561 174.633343 0 60.556191-11.782348 119.311363-35.018561 174.633343-22.443152 53.435003-54.56985 101.420901-95.489818 142.628418-40.927131 41.215704-88.594781 73.577762-141.677766 96.187713C631.902834 943.063643 573.512982 954.937065 513.332345 954.937065zM513.332345 93.230358c-226.054479 0-409.962046 185.256284-409.962046 412.968519 0 227.712235 183.90859 412.968519 409.962046 412.968519 226.054479 0 409.963069-185.256284 409.963069-412.968519C923.295414 278.486642 739.386824 93.230358 513.332345 93.230358z" p-id="2967"></path></svg>