<?xml version="1.0" standalone="no"?><!DOCTYPE svg PUBLIC "-//W3C//DTD SVG 1.1//EN" "http://www.w3.org/Graphics/SVG/1.1/DTD/svg11.dtd"><svg t="1553662705176" class="icon" style="" viewBox="0 0 1024 1024" version="1.1" xmlns="http://www.w3.org/2000/svg" p-id="5971" xmlns:xlink="http://www.w3.org/1999/xlink" width="200" height="200"><defs><style type="text/css"></style></defs><path d="M780.093433 65.268516 243.991502 65.268516c-98.730629 0-178.700985 80.014358-178.700985 178.614004l0 536.103978c0 98.774631 79.969333 178.744987 178.700985 178.744987l536.102954 0c98.644671 0 178.615027-79.969333 178.615027-178.744987L958.709483 243.88252C958.70846 145.282874 878.739127 65.268516 780.093433 65.268516zM869.401458 735.354997c0 73.994248-59.989279 134.069485-134.069485 134.069485L288.667004 869.424482c-73.994248 0-134.113487-60.075237-134.113487-134.069485L154.553517 288.558022c0-73.994248 60.119239-133.939525 134.113487-133.939525l446.664969 0c74.080206 0 134.069485 59.945277 134.069485 133.939525L869.401458 735.354997zM646.024971 556.652989l134.069485 0L511.956509 824.704978 243.904521 556.652989l134.069485 0 134.026506 134.026506L646.024971 556.652989zM511.956509 199.293999l268.137946 268.051989L646.024971 467.345987 511.999488 333.320505 377.972982 467.345987 243.904521 467.345987 511.956509 199.293999z" p-id="5972"></path></svg>