<?xml version="1.0" standalone="no"?><!DOCTYPE svg PUBLIC "-//W3C//DTD SVG 1.1//EN" "http://www.w3.org/Graphics/SVG/1.1/DTD/svg11.dtd"><svg class="icon" width="200px" height="200.00px" viewBox="0 0 1024 1024" version="1.1" xmlns="http://www.w3.org/2000/svg"><path fill="#333333" d="M808.256 512c0-17.664-13.248-32-29.376-32H249.024c-16.256 0-29.44 14.336-29.44 32s13.184 32 29.44 32H778.88c16.128 0 29.376-14.336 29.376-32zM135.872 742.848a29.44 29.44 0 1 0 58.88 0 29.44 29.44 0 1 0-58.88 0z"  /><path fill="#333333" d="M513.92 63.872A448.64 448.64 0 0 0 71.616 584.384a29.184 29.184 0 0 0 33.856 24.256 29.44 29.44 0 0 0 24.32-33.792A389.76 389.76 0 0 1 513.92 122.752c214.592 0 389.184 174.656 389.184 389.248S728.448 901.248 513.92 901.248a388.608 388.608 0 0 1-208.512-60.48 29.44 29.44 0 1 0-31.552 49.728 446.784 446.784 0 0 0 240.064 69.696c247.04 0 448.064-201.024 448.064-448.128 0-247.168-200.96-448.192-448.064-448.192z"  /></svg>