<?xml version="1.0" standalone="no"?><!DOCTYPE svg PUBLIC "-//W3C//DTD SVG 1.1//EN" "http://www.w3.org/Graphics/SVG/1.1/DTD/svg11.dtd"><svg class="icon" width="200px" height="200.00px" viewBox="0 0 1024 1024" version="1.1" xmlns="http://www.w3.org/2000/svg"><path fill="#333333" d="M512 897.71428584c212.14285752 0 385.71428584-173.57142832 385.71428584-385.71428584s-173.57142832-385.71428584-385.71428584-385.71428584-385.71428584 173.57142832-385.71428584 385.71428584 173.57142832 385.71428584 385.71428584 385.71428584z m0 64.28571416c-250.71428584 0-450-199.28571416-450-450s199.28571416-450 450-450 450 199.28571416 450 450-199.28571416 450-450 450z m0-578.57142832c70.71428584 0 128.57142832 57.85714248 128.57142832 128.57142832s-57.85714248 128.57142832-128.57142832 128.57142832-128.57142832-57.85714248-128.57142832-128.57142832 57.85714248-128.57142832 128.57142832-128.57142832z" /></svg>