<?xml version="1.0" standalone="no"?><!DOCTYPE svg PUBLIC "-//W3C//DTD SVG 1.1//EN" "http://www.w3.org/Graphics/SVG/1.1/DTD/svg11.dtd"><svg t="1553664987244" class="icon" style="" viewBox="0 0 1024 1024" version="1.1" xmlns="http://www.w3.org/2000/svg" p-id="7712" xmlns:xlink="http://www.w3.org/1999/xlink" width="200" height="200"><defs><style type="text/css"></style></defs><path d="M512 67C266.265 67 67 266.262 67 512.007S266.236 956.985 512 957c245.735-0.015 445-199.262 445-445.008C957 266.247 757.765 67 512 67zM512 927.319c-229.019 0-415.333-186.298-415.333-415.313C96.667 282.978 282.981 96.666 512 96.695c229.019-0.015 415.334 186.282 415.334 415.312C927.334 741.021 741.019 927.319 512 927.319z" p-id="7713"></path><path d="M468.92 380.074c0 14.34 11.646 25.957 25.987 25.957s25.929-11.617 25.929-25.957c0-14.341-11.588-25.958-25.929-25.958S468.92 365.733 468.92 380.074z" p-id="7714"></path><path d="M337.013 380.074c0 14.34 11.618 25.957 25.929 25.957 14.341 0 25.987-11.617 25.987-25.957 0-14.341-11.646-25.958-25.987-25.958C348.631 354.116 337.013 365.733 337.013 380.074z" p-id="7715"></path><path d="M593.584 365.168c7.938-0.941 16.021-1.521 24.22-1.666-30.594-64.706-103.341-110.364-188.082-110.364-112.235 0-203.553 80.047-203.553 178.446 0 56.537 30.391 109.351 81.728 143.015l-40.473 95.937 99.864-69.24c13.559 3.839 27.32 6.302 41.14 7.619-2.028-7.503-3.65-15.122-4.693-22.915-11.82-1.521-23.554-3.94-35.113-7.519l-5.157-1.594-45.746 31.709 18.165-43.051-8.373-4.939c-49.512-29.231-79.092-77.468-79.092-129.021 0-86.131 81.352-156.196 181.303-156.196C502.092 275.388 564.525 312.21 593.584 365.168z" p-id="7716"></path><path d="M797.832 562.011c0-85.029-78.831-154.212-175.683-154.212-96.88 0-175.683 69.183-175.683 154.212s78.803 154.212 175.683 154.212c17.847 0 35.692-2.463 53.075-7.33l89.319 61.969-36.243-85.971C772.019 655.804 797.832 610.508 797.832 562.011zM708.745 670.912l-8.402 4.954 13.936 33.026-35.2-24.407-5.157 1.593c-16.919 5.244-34.331 7.895-51.771 7.895-84.597 0-153.433-59.201-153.433-131.962 0-72.76 68.836-131.962 153.433-131.962s153.433 59.202 153.433 131.962C775.582 605.525 750.579 646.243 708.745 670.912z" p-id="7717"></path><path d="M566.408 495.696c-12.283 0-22.25 9.98-22.25 22.265 0 12.283 9.967 22.234 22.25 22.234 12.284 0 22.221-9.951 22.221-22.234C588.629 505.677 578.692 495.696 566.408 495.696z" p-id="7718"></path><path d="M679.252 495.696c-12.284 0-22.25 9.98-22.25 22.265 0 12.283 9.966 22.234 22.25 22.234s22.221-9.951 22.221-22.234C701.473 505.677 691.536 495.696 679.252 495.696z" p-id="7719"></path></svg>